<?xml version="1.0" encoding="utf-8"?>
<!-- Generator: Adobe Illustrator 21.1.0, SVG Export Plug-In . SVG Version: 6.00 Build 0)  -->
<svg version="1.1" id="Layer_1" xmlns="http://www.w3.org/2000/svg" xmlns:xlink="http://www.w3.org/1999/xlink" x="0px" y="0px"
	 viewBox="0 0 24 24" style="enable-background:new 0 0 24 24;" xml:space="preserve">
<title>dribbble</title>
<desc>Created with Sketch.</desc>
<g id="Artboard" transform="translate(-576.000000, -345.000000)">
	<g id="Group-7" transform="translate(524.000000, 345.000000)">
		<g id="Group-5" transform="translate(52.000000, 0.000000)">
			<g id="if_icon-social-dribbble-outline_211897" transform="translate(2.000000, 2.000000)">
				<path id="Shape" style="fill:#CCCCCC;" d="M10,0C4.5,0,0,4.5,0,10c0,5.5,4.5,10,10,10s10-4.5,10-10C20,4.5,15.5,0,10,0z
					 M16.3,4.6c1.1,1.3,1.8,3,2,4.8c-1.8-0.1-4-0.1-5.7,0.1c-0.2-0.6-0.4-1.1-0.7-1.6C13.9,7,15.5,5.9,16.3,4.6z M10,1.7
					c2,0,3.9,0.7,5.3,1.9c-0.9,1.1-2.3,2.1-4.1,2.9c-1-1.8-2.1-3.3-3.3-4.5C8.6,1.8,9.3,1.7,10,1.7z M6.2,2.6
					c1.2,1.2,2.3,2.7,3.3,4.5C7.7,7.7,5.5,8,3.2,8c-0.4,0-0.9,0-1.3,0C2.5,5.6,4.1,3.7,6.2,2.6z M1.7,9.6c0.5,0,1,0,1.4,0
					c2.6,0,5.1-0.4,7.2-1.1c0.2,0.4,0.4,0.8,0.6,1.3c-0.3,0.1-0.5,0.1-0.7,0.2c-2.9,1.2-5.1,3.1-6.4,5.5C2.5,14,1.7,12.1,1.7,10
					C1.7,9.9,1.7,9.7,1.7,9.6z M10,18.3c-1.9,0-3.7-0.7-5.1-1.8c1.1-2.2,3.1-4,5.6-5.1c0.2-0.1,0.5-0.2,0.9-0.3
					c0.3,0.8,0.6,1.7,0.8,2.6c0.4,1.4,0.6,2.7,0.8,4.1C12,18.1,11,18.3,10,18.3z M14.5,17c-0.2-1.3-0.4-2.7-0.8-4.1
					c-0.2-0.7-0.4-1.3-0.6-2c1.6-0.1,3.6-0.1,5.2,0C18,13.5,16.6,15.7,14.5,17z"/>
			</g>
		</g>
	</g>
</g>
</svg>
