<?xml version="1.0" encoding="utf-8"?>
<!-- Generator: Adobe Illustrator 21.1.0, SVG Export Plug-In . SVG Version: 6.00 Build 0)  -->
<svg version="1.1" id="Layer_1" xmlns="http://www.w3.org/2000/svg" xmlns:xlink="http://www.w3.org/1999/xlink" x="0px" y="0px"
	 viewBox="0 0 24 24" style="enable-background:new 0 0 24 24;" xml:space="preserve">
<title>instagram</title>
<desc>Created with Sketch.</desc>
<g id="Artboard" transform="translate(-680.000000, -345.000000)">
	<g id="Group-7" transform="translate(524.000000, 345.000000)">
		<g id="Group-3" transform="translate(156.000000, 0.000000)">
			<g id="Group" transform="translate(2.000000, 2.000000)">
				<path id="Combined-Shape" style="fill:#CCCCCC;" d="M18.4,1.7c-1-1.1-2.5-1.7-4.2-1.7H5.8C2.3,0,0,2.3,0,5.8v8.3
					c0,1.7,0.6,3.2,1.7,4.3c1.1,1,2.5,1.6,4.2,1.6h8.2c1.7,0,3.2-0.6,4.2-1.6c1.1-1,1.7-2.5,1.7-4.3V5.8C20,4.2,19.4,2.7,18.4,1.7z
					 M18,14.1c0,1.2-0.4,2.2-1.1,2.9c-0.7,0.7-1.7,1-2.9,1h-8c-1.2,0-2.2-0.4-2.9-1C2.4,16.3,2,15.3,2,14V5.9C2,4.7,2.4,3.7,3.1,3
					c0.7-0.7,1.7-1,2.9-1h8.1c1.2,0,2.2,0.4,2.9,1.1C17.6,3.8,18,4.8,18,5.9V14.1z M10,5c-2.7,0-5,2.2-5,5s2.2,5,5,5s5-2.3,5-5
					S12.7,5,10,5z M10,13c-1.6,0-3-1.4-3-3s1.4-3,3-3s3,1.4,3,3S11.6,13,10,13z M15.4,6c0.6,0,1.2-0.5,1.2-1.1S16,3.7,15.4,3.7
					s-1.2,0.5-1.2,1.1S14.8,6,15.4,6z"/>
			</g>
		</g>
	</g>
</g>
</svg>
