<?xml version="1.0" encoding="utf-8"?>
<!-- Generator: Adobe Illustrator 21.1.0, SVG Export Plug-In . SVG Version: 6.00 Build 0)  -->
<svg version="1.1" id="Layer_1" xmlns="http://www.w3.org/2000/svg" xmlns:xlink="http://www.w3.org/1999/xlink" x="0px" y="0px"
	 viewBox="0 0 24 24" style="enable-background:new 0 0 24 24;" xml:space="preserve">
<title>linkedin</title>
<desc>Created with Sketch.</desc>
<g id="Artboard" transform="translate(-732.000000, -345.000000)">
	<g id="Group-7" transform="translate(524.000000, 345.000000)">
		<g id="Group-6" transform="translate(208.000000, 0.000000)">
			<g id="if_linkedin-social-media_765228" transform="translate(3.000000, 3.000000)">
				<path id="Shape" style="fill:#CCCCCC;" d="M3.8,17.9V6.1H0.1v11.8H3.8z M3.8,2c0-1.1-0.7-1.9-1.9-1.9C0.8,0.1,0,0.9,0,2
					c0,1,0.7,1.9,1.8,1.9h0C3.1,3.8,3.8,3,3.8,2z M9.7,17.9v-6.7c0-0.4,0-0.7,0.1-1c0.3-0.7,0.9-1.5,2-1.5c1.4,0,2.3,0.8,2.3,2.4
					v6.7h3.7V11c0-3.7-2-5.4-4.6-5.4c-2.2,0-3.1,1.2-3.6,2l0-1.6H6.1c0.1,1.1,0,11.8,0,11.8H9.7z"/>
			</g>
		</g>
	</g>
</g>
</svg>
