<?xml version="1.0" encoding="utf-8"?>
<!-- Generator: Adobe Illustrator 21.1.0, SVG Export Plug-In . SVG Version: 6.00 Build 0)  -->
<svg version="1.1" id="Layer_1" xmlns="http://www.w3.org/2000/svg" xmlns:xlink="http://www.w3.org/1999/xlink" x="0px" y="0px"
	 viewBox="0 0 24 24" style="enable-background:new 0 0 24 24;" xml:space="preserve">
<title>twitter</title>
<desc>Created with Sketch.</desc>
<g id="Artboard" transform="translate(-628.000000, -345.000000)">
	<g id="Group-7" transform="translate(524.000000, 345.000000)">
		<g id="Group-4" transform="translate(104.000000, 0.000000)">
			<g id="if_twitter_square_107066" transform="translate(2.000000, 3.000000)">
				<path id="Shape" style="fill:#CCCCCC;" d="M13.2,0.2c-1.9,0.7-3.1,2.6-3,4.6l0,0.8L9.5,5.5C6.7,5.1,4.3,3.9,2.3,1.8l-1-1L1,1.5
					C0.5,3.2,0.8,5,1.9,6.2C2.5,6.9,2.4,7,1.4,6.6C1,6.5,0.7,6.4,0.7,6.4C0.5,6.5,0.9,8,1.2,8.5c0.4,0.8,1.2,1.6,2.1,2L4,10.9
					l-0.9,0c-0.8,0-0.9,0-0.8,0.3c0.3,1,1.5,2.1,2.8,2.6l0.9,0.3l-0.8,0.5c-1.2,0.7-2.6,1.1-4.1,1.2C0.6,15.9,0,16,0,16.1
					c0,0.2,1.9,1,2.9,1.4c3.2,1,7.1,0.6,10-1.2c2-1.3,4.1-3.7,5.1-6.2c0.5-1.3,1-3.6,1-4.8c0-0.7,0-0.8,0.9-1.7
					c0.5-0.5,1-1.1,1.1-1.2c0.2-0.3,0.1-0.3-0.6,0c-1.3,0.5-1.5,0.4-0.8-0.3c0.5-0.5,1-1.4,1-1.7c0,0-0.2,0-0.5,0.2
					c-0.3,0.2-0.9,0.4-1.3,0.5l-0.8,0.3l-0.7-0.5c-0.4-0.3-1-0.6-1.3-0.7C15-0.1,13.9,0,13.2,0.2z"/>
			</g>
		</g>
	</g>
</g>
</svg>
